<svg id="china-svg" xmlns="http://www.w3.org/2000/svg" width="394" height="309.5" viewBox="0 0 394 309.5">
  <metadata><?xpacket begin="﻿" id="W5M0MpCehiHzreSzNTczkc9d"?>
<x:xmpmeta xmlns:x="adobe:ns:meta/" x:xmptk="Adobe XMP Core 5.6-c138 79.159824, 2016/09/14-01:09:01        ">
   <rdf:RDF xmlns:rdf="http://www.w3.org/1999/02/22-rdf-syntax-ns#">
      <rdf:Description rdf:about=""/>
   </rdf:RDF>
</x:xmpmeta>                                                                                                                       
<?xpacket end="w"?></metadata>
<defs>
    <style>
      .cls-1 {
        fill: #27bc30;
      }

      .cls-1, .cls-2, .cls-3, .cls-4, .cls-5, .cls-6, .cls-7, .cls-8 {
        fill-rule: evenodd;
      }

      .cls-2 {
        fill: #2d9231;
      }

      .cls-2, .cls-3, .cls-4, .cls-5, .cls-6, .cls-7, .cls-8 {
        stroke: #fff;
        stroke-linejoin: round;
        stroke-width: 1px;
      }

      .cls-3 {
        fill: #97e242;
      }

      .cls-4 {
        fill: #ec7942;
      }

      .cls-5 {
        fill: #ffab50;
      }

      .cls-6 {
        fill: #4dac1a;
      }

      .cls-7 {
        fill: #ea9908;
      }

      .cls-8 {
        fill: #7daf1a;
      }
    </style>
  </defs>
  <path id="台湾" class="cls-1" d="M332,237l4-1,1,3v7l-1,1v6l-5,5-1,2v2l-2-1v-2h-1v-3h-1v-4l-1-1,1-3h2v-6Z" transform="translate(-0.5)"/>
  <path id="华南" class="cls-2" d="M198,247l9,4,4,2-1,3h-5l4,3,8,2-1,6,7,5,12-1,1,3,4-3,1,2v5l1,4a23.275,23.275,0,0,1-1.56,4.12L239,289l-3,2-3,2-3,3v4l2,4-1,4,5,1,2-2,1-3,1-2,1-1,3-3h1l1-3v-3l3-2-6-1-2,2h-3l4-10,4,1v-2l-2-3,1-2v-2h3l2,2h1l1-2,3-1,3,1,1-1,1-2h3l3-1h2l3-3v-3l1-2,3,1-1,1,2,3,2,1,3-2v-4l2,1,5-1,5-1,2-1,2-2,2-2h4l-2-2-1-3-1-3-2-2h-7l-3,2-3-1-5,1,1-3v-3h-5v-2l-7,2-4,1-2,1-4,3-3-3-1-2-1-1v-4l-1-3h-4l-3,1-3,1-3-2-1-1-1,3v2l-3,1-6,2-2,3-1,1h-2l-2-3h-2l-5,3-3,2-3,1-2-1Z" transform="translate(-0.5)"/>
  <path id="华中" class="cls-3" d="M251,173l-4-6c-0.269-.435,3.92-7,10.858-7.962,8.53-1.182,11.917-10.4,12.142-10.038l12,4v2l-3,3,1,2s9.6,5.6,7,5,3,3,3,3l-6,2-2,6-2,2,3,3,4,1,1,5-4,2,3,5,2,8-1,1-14,7,1,6-4,7,2,6,4,5-2,4-1,2-8,2-5,1-2,4-4-3-2-1v-5l-2-5-7,1-3,2-4-7-2-2,1-5,1-6-1-6-4-4-1-4-1-2,1-2,9,1,4-3-2-6,2-4-2-8,7-2,2-3" transform="translate(-0.5)"/>
  <path id="西南" class="cls-4" d="M23,133h7l4-5,12,3h8l4,5,16-2H87l3-2,6,4,6,3v6l-2,3-1,9,4,6,14,5,8,4,8,2,6,6,10-1,2-8,4-6,9,7,7,1,4,1,3-1v-4l4-4,1,8h3l2-4,3-3,3,4,4,1,6,6,4,3,3-3,6,1,17,8,6,2,5,5-3,5-7,2-3-2-2,1,1,6,4,4,2,6-1,9-1,4h2l1,8-1,2h-2l-3,2-4,1-2,4-4-1-3-3-6,4-3,3-5-2-6,1,4,3,7,1,1,4-2,1-2-1-5,3-3,3h-5l-4,1-6-1-10,1v6l-1,5-5-6-4,2-3-2v-3h-6l3-9-5-1,1-3-1-4h-9v-7l7-4,3-2,1-7,1-8-4-3,1-2-4-2v-2h-7l-3-2v-2l-3-1v-5l-5,3-4-4-4,1-7,5h-2l-7,4h-4l-3-3H93l1-3H87l-8,5v-5l-2-1H68l-4-4-3,1-2-1-6-4-6-5-1-4H43l-2-3v-4l-4-2-1-2-8-5-1-2H22l-1-2v-4l-4-1-4-2,1-5,1-4,3,2,2-1h2v-8l-3-1,1-4Z" transform="translate(-0.5)"/>
  <path id="西北" class="cls-5" d="M249,164l-2,3,2,3,1,4-2,3h-3l-4,1,3,4v5l-2,3-3-1-28-12-3,3-5-1-1-4-4-3-4-2-2-3-4,1-2,5-4,1v-9l-4,5v4h-6l-3-1-4-1-10-7-4,6v8l-4,1-8,1-4-6-9-3h-6l-2-4h-4l-2-2-11-4-3-5,2-9,2-3v-6l-12-7-3,2H74l-8,1-10,1-2-5H41l-6-2-7,5-3,1-5-4-1-8-5-2-6-7,1-5-5-5,2-3V97l1-3L6,91,1,88V86l4-4s1.6-3.2,6-2l5-1,5,2h4l3-2,10-1,4-2,9-1,2-1V71l5-4V58l1-5-1-1H71l2,1,2-3V48l4-5,4-2,8,3,5-1,2-2V37l4-3,7-4,4,4,3,5,3,3,4,1,2,6,1,5-3,6v5l6,3,7,2,13,7,6,15h7l2,6v5l3,5,11,1v5l-3,3,7,8,4,2,1-3,6-1,11,1v4l-6,6,2,5,4,1,4-3,4-3v-5l7-5,3,4-2,4,6,3,4,1,5-1v-3l4-5,2-2,12-3,1,4-6,7,1,5-2,3v4l-2,3,5,9-2,2Z" transform="translate(-0.5)"/>
  <path id="华东" class="cls-6" d="M280,148s2.257-4.6,12-11c12.95-8.5,10-1,10-1v-1l2,2-2,2,3,2,5-1,8-6,3,2,9-1-1,5-13,6-2,6s-7,5.75-4,8a41.111,41.111,0,0,0,7,4l7,12,7,7-5,1,7,5-3,4-5,3h6l5,4-3,1,3,2v3l-3,4v3h-3l-2,6-3,4-2,3h-2v11l-4,1v2l-2,2-1,3-4,1-1,3s-2.4,3.4-4,3-2.6,2-2,3-2,1-2,1l-1-4-2-5-7-1-3,2v-1h-4l-1,1h-4l-1-2,2-3-5-1-1-5,3-2-4-4-2-5v-4l4-5-2-6,3-3,3-1,5-3,5-1-2-9-5-3,5-5-1-4h-4l-3-4v-1l3-2,1-2v-4l4-1,1,1,1-2-2-2-8-4v-5l4-2-4-3Z" transform="translate(-0.5)"/>
  <path id="华北" class="cls-7" d="M163,92s9.75,0,10,2,14,1,14,1l9,5,8,4h7l10-4,26-4V91l4-2h3l-4-6,4-5,14-1,4-4,10-3s0.75-5.75,6-6a124.424,124.424,0,0,0,14-2s4.594-5.958-9-12c-2.25-1-5,3-5,3l-11-1,5-15,8,1,8-5-1-7,7-12-5-3,6-5,2,2,1,6,5-1,6,8,12-4,3,4-2,6,1,8-6,8-8,8,1,4,3,3-1,6s-7.5-3.5-8,1-1.75,3.25,3,7,0,4,0,4l3,3,5-2s4.25,5.25,3,9-8.5,7.75-11,7-5.5,1.5-8,3-2,2-2,2l-3-1-1,7-2,7,7,6-8,8h-4l-2,5,6,3-10,4-10,10-1,4a50.205,50.205,0,0,0-8-2c-2.75-.25-2.75.75-2,3s-3,6-3,6l-5-1-2,2-4,2-2-1-3,4-2-4,2-3s-6.25-3.5-4-12,2-6,2-6v-5l6-10-13,1-6,7-2,5s-13-2.5-13-3c0-13.12,1-6,1-6l-2-3-6,5s-1.5,9-8,10-5.5-1.25-7-5,6-8,6-8,0.25-3.75-12-3-5,0-5,0l-1,2-2,1-4-2,1-2-6-5,3-5v-4l-11-1-3-5-2-9Z" transform="translate(-0.5)"/>
  <path id="东北" class="cls-8" d="M306,6l13-6,8,4,4,1,4,5,4,6,11,14s3.714-2.286,9,1,6,1,6,1l4,6s0.286,3.143,1,3,6-1,6-1l4-2,4-4,6-5,2,1-1,3,3,3-4,5-2,18-7,1-4,6,4,14-3,6-6-4v5l-3,2-1,2-4,3s0,6-2,6-4.857,1.857-6,0-2-2-2-2l-8,9s-4.857,1.429-6,6-5.286,3-7,3-7.286,3-6,4-1.429,4.857-4,4-1.857,4.143-4,3,4-16,4-16l-6-2c-0.714,2-5,8-5,8h-4s-4.714-4.143-4-5-3.286-.571-3-1a58.135,58.135,0,0,0,1-6l1-2V98l2-1,2,1,4-4,3-2,3,1,2-1,3-1,3-1,3-4-3-9-5,2-2-1-2-4,1-1-4-6,1-3,5-1,2,1,1,1V60l2-2-5-3-1-4,5-4,3-4,5-6,1-2V30l-1-3,2-4V20l-3-3-5,4h-7s-2.714-7.429-5-7a9.172,9.172,0,0,1-5-1Z" transform="translate(-0.5)"/>
</svg>
